<?xml version="1.0" encoding="iso-8859-1"?>
<svg version="1.1" id="Capa_1" xmlns="http://www.w3.org/2000/svg" xmlns:xlink="http://www.w3.org/1999/xlink" x="0px" y="0px"
	 viewBox="0 0 512.001 512.001" style="enable-background:new 0 0 512.001 512.001;" xml:space="preserve">
<g>
	<g>
		<path d="M271,30.453V15c0-8.284-6.716-15-15-15s-15,6.716-15,15v15.452C107.827,38.173,0,149.245,0,286
			c0,8.284,6.715,15.014,14.999,15.014c8.199,0,14.983-6.603,15-14.986C30.538,282.527,45.932,271,76,271c29.199,0,45,11.469,45,15
			c0,8.284,6.716,15,15,15s15-6.716,15-15c0-3.321,15.281-15,45-15c29.199,0,45,11.469,45,15v166c0,33.084,26.916,60,60,60
			s60-26.916,60-60c0-8.284-6.716-15-15-15s-15,6.716-15,15c0,16.542-13.458,30-30,30s-30-13.458-30-30V286c0-3.321,15.281-15,45-15
			c21.651,0,38.576,6.613,43.907,13.101c-0.741,9.613,5.987,16.149,13.732,16.76c0.191,0.015,0.378,0.015,0.568,0.022
			c0.589,0.07,1.186,0.117,1.794,0.117c8.284,0,15-6.716,15-15c0-3.321,15.281-15,45-15c30.068,0,45.462,11.528,46,15
			c0,8.284,6.716,15,15,15s15-6.716,15-15C512,149.193,404.128,38.17,271,30.453z M121.064,249.495C108.31,244.003,92.51,241,76,241
			c-16.144,0-30.806,2.689-42.853,7.387c13.342-79.303,68.12-144.717,141.235-173.13
			C137.73,121.565,122.084,189.371,121.064,249.495z M241,249.467c-12.743-5.474-28.518-8.467-45-8.467
			c-16.439,0-32.175,2.977-44.901,8.424c1.878-95.756,41.41-173.535,89.901-187.297V249.467z M316,241
			c-16.482,0-32.257,2.993-45,8.467V62.125c47.575,13.492,88.024,89.763,89.9,187.299C348.174,243.977,332.439,241,316,241z
			 M436,241c-16.519,0-32.326,3.007-45.084,8.503c-1.005-59.581-16.434-127.691-53.264-174.234
			c73.098,28.421,127.861,93.827,141.201,173.118C466.806,243.689,452.144,241,436,241z"/>
	</g>
</g>
</svg>
